<svg width="16" height="14" viewBox="0 0 16 14" fill="none" xmlns="http://www.w3.org/2000/svg">
<path d="M1.00046 7.99904L12.8601 7.99904L9.2302 12.3587C9.06047 12.5628 8.97881 12.8261 9.00319 13.0905C9.02756 13.3549 9.15598 13.5988 9.3602 13.7685C9.56441 13.9382 9.82768 14.0199 10.0921 13.9955C10.3565 13.9711 10.6004 13.8427 10.7702 13.6385L15.77 7.63907C15.8036 7.59135 15.8337 7.54122 15.86 7.48909C15.86 7.43909 15.86 7.40909 15.93 7.3591C15.9753 7.24445 15.999 7.12241 16 6.99913C15.999 6.87585 15.9753 6.75381 15.93 6.63916C15.93 6.58917 15.93 6.55917 15.86 6.50917C15.8337 6.45704 15.8036 6.40691 15.77 6.35919L10.7702 0.359726C10.6761 0.246853 10.5584 0.156081 10.4253 0.0938653C10.2922 0.0316498 10.1471 -0.000481006 10.0002 -0.000242439C9.76653 -0.000698901 9.5401 0.0806687 9.36019 0.229737C9.25894 0.313678 9.17524 0.416771 9.11389 0.533107C9.05254 0.649444 9.01474 0.776739 9.00267 0.907704C8.99059 1.03867 9.00448 1.17073 9.04352 1.29632C9.08256 1.42191 9.146 1.53857 9.2302 1.63961L12.8601 5.99922L1.00046 5.99922C0.735248 5.99922 0.480902 6.10457 0.293371 6.29209C0.105841 6.47961 0.000487964 6.73394 0.000487975 6.99913C0.000487987 7.26432 0.105841 7.51865 0.293371 7.70617C0.480902 7.89369 0.735249 7.99904 1.00046 7.99904Z" fill="white"/>
</svg>
