<svg width="390" height="42" viewBox="0 0 390 42" fill="none" xmlns="http://www.w3.org/2000/svg">
<g opacity="0.8" filter="url(#filter0_d_1823_763)">
<path d="M-12.4185 24.8413C-5.92878 23.4493 0.224315 22.0606 7.84009 21.0438C28.6557 18.2647 53.9534 17.7376 77.1106 17.5616C102.873 17.3657 127.397 17.8558 151.855 19.9866C171.153 21.6678 188.942 24.2394 208.205 25.9318C223.531 27.2785 240.299 27.9561 256.529 27.4515C287.539 26.4875 303.678 19.6216 325.594 14.985C346.395 10.5844 370.265 8.97964 397.359 9.30789C371.449 9.11265 348.359 10.7067 328.511 14.9252C308.971 19.0781 294.572 25.3423 269.209 27.5563C262.722 28.1225 255.977 28.39 249.118 28.45C236.166 28.5633 223.402 28.0953 211.085 27.1003C191.478 25.5165 173.686 22.8171 154.512 20.9643C128.848 18.4845 103.933 17.8294 76.5401 17.9417C53.6505 18.0355 28.7488 18.4631 8.00801 21.1231C0.353084 22.1049 -5.88591 23.4762 -12.4185 24.8413Z" fill="#F5B180" fill-opacity="0.95" shape-rendering="crispEdges"/>
</g>
<g opacity="0.8" filter="url(#filter1_d_1823_763)">
<path d="M-174 19.6948C-164.244 21.2415 -154.995 22.7845 -143.546 23.9142C-112.255 27.0021 -74.2261 27.5878 -39.4149 27.7834C-0.687485 28.001 36.1788 27.4564 72.9446 25.0889C101.954 23.2209 128.697 20.3636 157.653 18.4831C180.693 16.9868 205.899 16.2339 230.297 16.7945C276.913 17.8657 301.174 25.4944 334.12 30.6462C365.388 35.5357 401.271 37.3188 442 36.9541C403.052 37.1711 368.34 35.3999 338.504 30.7127C309.131 26.0983 287.485 19.1381 249.358 16.6781C239.606 16.049 229.467 15.7518 219.157 15.6851C199.686 15.5592 180.499 16.0793 161.982 17.1848C132.508 18.9446 105.763 21.9439 76.9395 24.0025C38.3597 26.7579 0.906509 27.4857 -40.2725 27.361C-74.6815 27.2568 -112.115 26.7817 -143.294 23.8261C-154.801 22.7352 -164.18 21.2116 -174 19.6948Z" fill="#F5B180" fill-opacity="0.95" shape-rendering="crispEdges"/>
</g>
<g opacity="0.8" filter="url(#filter2_d_1823_763)">
<path d="M9.1748 22.3052C15.6683 20.7585 21.8251 19.2155 29.4453 18.0858C50.2733 14.9979 75.5859 14.4122 98.7569 14.2166C124.534 13.999 149.073 14.5436 173.545 16.9111C192.855 18.7791 210.655 21.6364 229.929 23.5169C245.264 25.0132 262.042 25.7661 278.281 25.2055C309.31 24.1343 325.458 16.5056 347.388 11.3538C368.201 6.46426 392.085 4.68115 419.194 5.04588C393.27 4.82894 370.165 6.60015 350.306 11.2873C330.755 15.9017 316.347 22.8619 290.969 25.3219C284.478 25.951 277.729 26.2482 270.866 26.3149C257.906 26.4408 245.135 25.9207 232.81 24.8152C213.192 23.0554 195.389 20.0561 176.204 17.9975C150.525 15.2421 125.595 14.5143 98.186 14.639C75.2829 14.7432 50.3665 15.2183 29.6134 18.1739C21.9539 19.2648 15.7112 20.7884 9.1748 22.3052Z" fill="#F5B180" fill-opacity="0.95" shape-rendering="crispEdges"/>
</g>
<g opacity="0.3" filter="url(#filter3_d_1823_763)">
<path d="M48.9634 14.4096C53.3129 15.4481 57.4368 16.4841 62.541 17.2427C76.4921 19.3159 93.4471 19.7092 108.967 19.8405C126.234 19.9866 142.67 19.621 159.062 18.0314C171.996 16.7771 183.919 14.8586 196.829 13.596C207.101 12.5914 218.34 12.0858 229.217 12.4623C250 13.1815 260.817 18.3036 275.506 21.7627C289.447 25.0457 305.445 26.2429 323.604 25.998C306.239 26.1437 290.763 24.9544 277.461 21.8073C264.365 18.7091 254.714 14.0358 237.715 12.3841C233.368 11.9617 228.847 11.7622 224.25 11.7174C215.569 11.6329 207.015 11.982 198.759 12.7243C185.618 13.9059 173.694 15.9197 160.843 17.3019C143.643 19.152 126.945 19.6407 108.585 19.5569C93.244 19.487 76.5545 19.1679 62.6536 17.1835C57.5231 16.451 53.3416 15.428 48.9634 14.4096Z" fill="#F5B180" fill-opacity="0.95" shape-rendering="crispEdges"/>
</g>
<g opacity="0.3" filter="url(#filter4_d_1823_763)">
<path d="M301.283 27.2857C296.934 26.2472 292.81 25.2112 287.706 24.4527C273.755 22.3794 256.8 21.9861 241.279 21.8548C224.013 21.7087 207.576 22.0743 191.184 23.6639C178.25 24.9182 166.327 26.8367 153.417 28.0993C143.145 29.1039 131.907 29.6095 121.03 29.2331C100.246 28.5139 89.4295 23.3917 74.7407 19.9326C60.7996 16.6497 44.8014 15.4524 26.6428 15.6973C44.0077 15.5516 59.4836 16.7409 72.7859 19.888C85.8816 22.9862 95.5323 27.6595 112.531 29.3112C116.879 29.7336 121.4 29.9332 125.996 29.9779C134.677 30.0625 143.232 29.7133 151.487 28.971C164.628 27.7894 176.552 25.7756 189.403 24.3934C206.604 22.5433 223.302 22.0546 241.661 22.1384C257.003 22.2084 273.692 22.5274 287.593 24.5119C292.723 25.2443 296.905 26.2673 301.283 27.2857Z" fill="#F5B180" fill-opacity="0.95" shape-rendering="crispEdges"/>
</g>
<defs>
<filter id="filter0_d_1823_763" x="-17.3533" y="4.33179" width="419.646" height="29.0698" filterUnits="userSpaceOnUse" color-interpolation-filters="sRGB">
<feFlood flood-opacity="0" result="BackgroundImageFix"/>
<feColorMatrix in="SourceAlpha" type="matrix" values="0 0 0 0 0 0 0 0 0 0 0 0 0 0 0 0 0 0 127 0" result="hardAlpha"/>
<feOffset/>
<feGaussianBlur stdDeviation="2.4674"/>
<feComposite in2="hardAlpha" operator="out"/>
<feColorMatrix type="matrix" values="0 0 0 0 1 0 0 0 0 0.928917 0 0 0 0 0.676894 0 0 0 1 0"/>
<feBlend mode="normal" in2="BackgroundImageFix" result="effect1_dropShadow_1823_763"/>
<feBlend mode="normal" in="SourceGraphic" in2="effect1_dropShadow_1823_763" result="shape"/>
</filter>
<filter id="filter1_d_1823_763" x="-178.935" y="10.7317" width="625.87" height="31.2031" filterUnits="userSpaceOnUse" color-interpolation-filters="sRGB">
<feFlood flood-opacity="0" result="BackgroundImageFix"/>
<feColorMatrix in="SourceAlpha" type="matrix" values="0 0 0 0 0 0 0 0 0 0 0 0 0 0 0 0 0 0 127 0" result="hardAlpha"/>
<feOffset/>
<feGaussianBlur stdDeviation="2.4674"/>
<feComposite in2="hardAlpha" operator="out"/>
<feColorMatrix type="matrix" values="0 0 0 0 1 0 0 0 0 0.928917 0 0 0 0 0.676894 0 0 0 1 0"/>
<feBlend mode="normal" in2="BackgroundImageFix" result="effect1_dropShadow_1823_763"/>
<feBlend mode="normal" in="SourceGraphic" in2="effect1_dropShadow_1823_763" result="shape"/>
</filter>
<filter id="filter2_d_1823_763" x="4.24" y="0.0651932" width="419.889" height="31.2031" filterUnits="userSpaceOnUse" color-interpolation-filters="sRGB">
<feFlood flood-opacity="0" result="BackgroundImageFix"/>
<feColorMatrix in="SourceAlpha" type="matrix" values="0 0 0 0 0 0 0 0 0 0 0 0 0 0 0 0 0 0 127 0" result="hardAlpha"/>
<feOffset/>
<feGaussianBlur stdDeviation="2.4674"/>
<feComposite in2="hardAlpha" operator="out"/>
<feColorMatrix type="matrix" values="0 0 0 0 1 0 0 0 0 0.928917 0 0 0 0 0.676894 0 0 0 1 0"/>
<feBlend mode="normal" in2="BackgroundImageFix" result="effect1_dropShadow_1823_763"/>
<feBlend mode="normal" in="SourceGraphic" in2="effect1_dropShadow_1823_763" result="shape"/>
</filter>
<filter id="filter3_d_1823_763" x="44.0286" y="6.77027" width="284.51" height="24.1933" filterUnits="userSpaceOnUse" color-interpolation-filters="sRGB">
<feFlood flood-opacity="0" result="BackgroundImageFix"/>
<feColorMatrix in="SourceAlpha" type="matrix" values="0 0 0 0 0 0 0 0 0 0 0 0 0 0 0 0 0 0 127 0" result="hardAlpha"/>
<feOffset/>
<feGaussianBlur stdDeviation="2.4674"/>
<feComposite in2="hardAlpha" operator="out"/>
<feColorMatrix type="matrix" values="0 0 0 0 1 0 0 0 0 0.928917 0 0 0 0 0.676894 0 0 0 1 0"/>
<feBlend mode="normal" in2="BackgroundImageFix" result="effect1_dropShadow_1823_763"/>
<feBlend mode="normal" in="SourceGraphic" in2="effect1_dropShadow_1823_763" result="shape"/>
</filter>
<filter id="filter4_d_1823_763" x="21.7078" y="10.7317" width="284.51" height="24.1933" filterUnits="userSpaceOnUse" color-interpolation-filters="sRGB">
<feFlood flood-opacity="0" result="BackgroundImageFix"/>
<feColorMatrix in="SourceAlpha" type="matrix" values="0 0 0 0 0 0 0 0 0 0 0 0 0 0 0 0 0 0 127 0" result="hardAlpha"/>
<feOffset/>
<feGaussianBlur stdDeviation="2.4674"/>
<feComposite in2="hardAlpha" operator="out"/>
<feColorMatrix type="matrix" values="0 0 0 0 1 0 0 0 0 0.928917 0 0 0 0 0.676894 0 0 0 1 0"/>
<feBlend mode="normal" in2="BackgroundImageFix" result="effect1_dropShadow_1823_763"/>
<feBlend mode="normal" in="SourceGraphic" in2="effect1_dropShadow_1823_763" result="shape"/>
</filter>
</defs>
</svg>
