<svg width="32" height="32" viewBox="0 0 32 32" fill="none" xmlns="http://www.w3.org/2000/svg">
<path d="M20.5245 12.3313C20.5245 14.8302 18.4987 16.856 15.9998 16.856C13.5009 16.856 11.4751 14.8302 11.4751 12.3313C11.4751 9.83242 13.5009 7.80664 15.9998 7.80664C18.4987 7.80664 20.5245 9.83242 20.5245 12.3313Z" stroke="#868686" stroke-width="2" stroke-linecap="round" stroke-linejoin="round"/>
<path d="M7.23324 23.138C7.10026 23.4142 6.98483 23.7086 6.88585 24.0215C6.69325 24.6304 7.14978 25.2449 7.78207 25.2449H8.31734C8.71745 23.9944 9.35028 23.2131 10.3658 22.6932C11.5666 22.0784 13.3419 21.8098 16.0004 21.8098C18.6589 21.8098 20.4341 22.0784 21.6349 22.6932C22.6505 23.2131 23.2833 23.9944 23.6834 25.2449H24.213C24.8478 25.2449 25.3071 24.6277 25.1129 24.0153C24.9996 23.658 24.8646 23.3248 24.7066 23.0153C23.8394 21.4111 22.4396 20.6071 20.8839 20.1977C20.1362 20.0083 19.2925 19.8881 18.3479 19.8196C17.6438 19.7733 16.948 19.7613 16.2915 19.75C16.1935 19.7483 16.0965 19.7466 16.0004 19.7449" fill="#868686"/>
<path d="M11.1533 20.1886C9.48119 20.6241 8.07058 21.4776 7.23324 23.138Z" fill="#868686"/>
<path d="M11.1533 20.1886C12.4666 19.8611 14.0735 19.7449 16.0004 19.7449Z" fill="#868686"/>
<path d="M6.88585 24.0215C6.98483 23.7086 7.10026 23.4142 7.23324 23.138C8.07058 21.4776 9.48119 20.6241 11.1533 20.1886C12.4666 19.8611 14.0735 19.7449 16.0004 19.7449L16.2915 19.75C16.948 19.7613 17.6438 19.7733 18.3479 19.8196C19.2925 19.8881 20.1362 20.0083 20.8839 20.1977C22.4396 20.6071 23.8394 21.4111 24.7066 23.0153C24.8646 23.3248 24.9996 23.658 25.1129 24.0153C25.3071 24.6277 24.8478 25.2449 24.213 25.2449H23.6834C23.2833 23.9944 22.6505 23.2131 21.6349 22.6932C20.4341 22.0784 18.6589 21.8098 16.0004 21.8098C13.3419 21.8098 11.5666 22.0784 10.3658 22.6932C9.35028 23.2131 8.71745 23.9944 8.31734 25.2449H7.78207C7.14978 25.2449 6.69325 24.6304 6.88585 24.0215Z" fill="#868686"/>
</svg>
