<svg width="160" height="26" viewBox="0 0 160 26" fill="none" xmlns="http://www.w3.org/2000/svg">
<g opacity="0.9">
<path d="M20.5438 0.666668V1.5C19.9011 1.3 19.3914 1.2 19.0147 1.2C18.3498 1.2 17.8734 1.46667 17.5853 2C17.4301 2.31111 17.2971 2.63333 17.1863 2.96667L11.934 23.7667V23.8L11.5351 25.3333H9.57382L3.0583 2.66667C2.9475 2.22222 2.72588 1.88889 2.39346 1.66667C2.08319 1.42222 1.68428 1.3 1.19673 1.3C0.819981 1.3 0.421071 1.36667 0 1.5V0.666668H8.01143V1.5C7.5682 1.36667 7.18037 1.3 6.84794 1.3C6.49336 1.3 6.21634 1.37778 6.01688 1.53333C5.81743 1.68889 5.7177 1.91111 5.7177 2.2C5.7177 2.4 5.73986 2.55556 5.78418 2.66667L11.5351 22.4667L16.0229 3.5L16.2556 2.66667C16.2999 2.53333 16.322 2.36667 16.322 2.16667C16.322 1.52222 15.9231 1.2 15.1253 1.2C14.6599 1.2 14.1502 1.3 13.5962 1.5V0.666668H20.5438Z" fill="#CEA687"/>
<path d="M39.4871 17.8C39.1768 18.0889 38.9663 18.5444 38.8555 19.1667C38.7668 19.7889 38.7225 20.7111 38.7225 21.9333V25.3333H21.8686V24.5C22.2897 24.6333 22.6775 24.7 23.0321 24.7C23.4531 24.7 23.7745 24.5889 23.9961 24.3667C24.2399 24.1222 24.3618 23.7778 24.3618 23.3333V2.66667C24.3618 2.22222 24.2399 1.88889 23.9961 1.66667C23.7745 1.42222 23.4531 1.3 23.0321 1.3C22.6997 1.3 22.3118 1.36667 21.8686 1.5V0.666668H37.3263L37.2266 1.63333C37.1601 2.05556 37.1269 2.6 37.1269 3.26667C37.1269 4.57778 37.282 5.6 37.5923 6.33333H37.0604C36.8166 5.86667 36.6393 5.25556 36.5285 4.5C36.3734 3.7 36.1628 3.07778 35.8969 2.63333C35.631 2.16667 35.088 1.77778 34.268 1.46667C33.448 1.15556 32.2181 1 30.5781 1C29.4035 1 28.5503 1.2 28.0184 1.6C27.4866 2 27.1652 2.43333 27.0544 2.9C26.9658 3.34444 26.8993 3.98889 26.855 4.83333V11.1667H31.4424C32.0851 11.1667 32.5283 11.1556 32.7721 11.1333C33.038 11.0889 33.2375 10.9889 33.3705 10.8333C33.5034 10.6778 33.5699 10.4111 33.5699 10.0333C33.5699 9.36667 33.5256 8.86667 33.437 8.53333C33.3705 8.2 33.1489 8.03333 32.7721 8.03333V7.6H34.0686V15.3333H32.7721V14.8667C33.1489 14.8667 33.3705 14.6889 33.437 14.3333C33.5256 13.9556 33.5699 13.4222 33.5699 12.7333C33.5699 12.3778 33.4148 12.1444 33.1045 12.0333C32.8164 11.9 32.2624 11.8222 31.4424 11.8H26.855V21.1667C26.8993 21.9222 26.9879 22.5556 27.1209 23.0667C27.2539 23.5556 27.5974 24 28.1514 24.4C28.7276 24.8 29.603 25 30.7776 25C32.6835 25 34.135 24.8 35.1323 24.4C36.1296 23.9778 36.8055 23.4667 37.1601 22.8667C37.5147 22.2444 37.825 21.4111 38.0909 20.3667C38.3568 19.2333 38.6671 18.3778 39.0217 17.8H39.4871Z" fill="#CEA687"/>
<path d="M57.8304 26C56.8775 26 56.1018 25.7667 55.5034 25.3C54.9051 24.8333 54.4286 24.2556 54.074 23.5667C53.7416 22.8556 53.3759 21.8889 52.977 20.6667C52.4895 19.2444 52.0241 18.1111 51.5808 17.2667C51.1598 16.4 50.506 15.6667 49.6195 15.0667C48.7552 14.4667 47.6139 14.1667 46.1956 14.1667V13.8667C49.0323 13.8667 51.0711 13.3667 52.3122 12.3667C53.5532 11.3667 54.1738 9.9 54.1738 7.96667C54.1738 6.03333 53.6197 4.38889 52.5116 3.03333C51.4257 1.67778 49.6639 1 47.2261 1C46.5612 1 45.8742 1.08889 45.1651 1.26667L45.1318 23.3333C45.1318 23.7556 45.3313 24.0889 45.7302 24.3333C46.1291 24.5778 46.6277 24.7 47.2261 24.7C47.6693 24.7 48.1015 24.6333 48.5225 24.5V25.3333H40.1454V24.5C40.5665 24.6333 40.9543 24.7 41.3089 24.7C41.73 24.7 42.0513 24.5889 42.273 24.3667C42.5167 24.1222 42.6386 23.7778 42.6386 23.3333V2.66667C42.6386 2.22222 42.5167 1.88889 42.273 1.66667C42.0513 1.42222 41.73 1.3 41.3089 1.3C40.9765 1.3 40.5887 1.36667 40.1454 1.5V0.666668H48.6887C51.06 0.666668 53.0324 1.24445 54.6059 2.4C56.1794 3.55556 56.9661 5.34445 56.9661 7.76667C56.9661 9.32222 56.3899 10.6222 55.2375 11.6667C54.1073 12.7111 52.6557 13.4333 50.8828 13.8333C51.5033 13.8556 52.0462 14.1111 52.5116 14.6C52.9992 15.0889 53.4203 15.7 53.7748 16.4333C54.1294 17.1444 54.5394 18.0889 55.0048 19.2667C55.5145 20.5556 55.9578 21.5889 56.3345 22.3667C56.7113 23.1444 57.1766 23.8 57.7307 24.3333C58.2847 24.8667 58.9385 25.1333 59.692 25.1333C60.0687 25.1333 60.4566 25.0222 60.8555 24.8C61.2766 24.5778 61.5979 24.2667 61.8195 23.8667L62.0854 24.3C61.7309 24.7222 61.1436 25.1111 60.3236 25.4667C59.5258 25.8222 58.6947 26 57.8304 26Z" fill="#CEA687"/>
<path d="M80.3558 17.8C80.0455 18.0889 79.835 18.5444 79.7242 19.1667C79.6356 19.7889 79.5912 20.7111 79.5912 21.9333V25.3333H62.7373V24.5C63.1584 24.6333 63.5462 24.7 63.9008 24.7C64.3219 24.7 64.6432 24.5889 64.8648 24.3667C65.1086 24.1222 65.2305 23.7778 65.2305 23.3333V2.66667C65.2305 2.22222 65.1086 1.88889 64.8648 1.66667C64.6432 1.42222 64.3219 1.3 63.9008 1.3C63.5684 1.3 63.1805 1.36667 62.7373 1.5V0.666668H78.195L78.0953 1.63333C78.0288 2.05556 77.9956 2.6 77.9956 3.26667C77.9956 4.57778 78.1507 5.6 78.461 6.33333H77.9291C77.6853 5.86667 77.508 5.25556 77.3972 4.5C77.2421 3.7 77.0316 3.07778 76.7656 2.63333C76.4997 2.16667 75.9567 1.77778 75.1367 1.46667C74.3168 1.15556 73.0868 1 71.4468 1C70.2723 1 69.419 1.2 68.8872 1.6C68.3553 2 68.0339 2.43333 67.9231 2.9C67.8345 3.34444 67.768 3.98889 67.7237 4.83333V11.1667H72.3111C72.9538 11.1667 73.3971 11.1556 73.6408 11.1333C73.9068 11.0889 74.1062 10.9889 74.2392 10.8333C74.3722 10.6778 74.4387 10.4111 74.4387 10.0333C74.4387 9.36667 74.3943 8.86667 74.3057 8.53333C74.2392 8.2 74.0176 8.03333 73.6408 8.03333V7.6H74.9373V15.3333H73.6408V14.8667C74.0176 14.8667 74.2392 14.6889 74.3057 14.3333C74.3943 13.9556 74.4387 13.4222 74.4387 12.7333C74.4387 12.3778 74.2835 12.1444 73.9733 12.0333C73.6852 11.9 73.1311 11.8222 72.3111 11.8H67.7237V21.1667C67.768 21.9222 67.8567 22.5556 67.9896 23.0667C68.1226 23.5556 68.4661 24 69.0201 24.4C69.5963 24.8 70.4717 25 71.6463 25C73.5522 25 75.0038 24.8 76.001 24.4C76.9983 23.9778 77.6743 23.4667 78.0288 22.8667C78.3834 22.2444 78.6937 21.4111 78.9596 20.3667C79.2256 19.2333 79.5358 18.3778 79.8904 17.8H80.3558Z" fill="#CEA687"/>
<path d="M98.0675 1.63333C98.0011 2.05556 97.9678 2.6 97.9678 3.26667C97.9678 4.57778 98.1229 5.6 98.4332 6.33333H97.9013C97.6575 5.86667 97.4803 5.25556 97.3694 4.5C97.2143 3.7 97.0038 3.07778 96.7378 2.63333C96.4719 2.16667 95.9289 1.77778 95.109 1.46667C94.289 1.15556 93.059 1 91.419 1C91.1309 1 90.8096 1.02222 90.455 1.06667V23.3333C90.455 23.7778 90.5658 24.1222 90.7874 24.3667C91.0312 24.5889 91.3636 24.7 91.7847 24.7C92.1393 24.7 92.5271 24.6333 92.9482 24.5V25.3333H85.4687V24.5C85.8897 24.6333 86.2775 24.7 86.6321 24.7C87.0532 24.7 87.3745 24.5889 87.5962 24.3667C87.8399 24.1222 87.9618 23.7778 87.9618 23.3333V1.06667C87.6072 1.02222 87.297 1 87.031 1C85.3911 1 84.1611 1.15556 83.3411 1.46667C82.5211 1.77778 81.9782 2.16667 81.7122 2.63333C81.4463 3.07778 81.2358 3.7 81.0806 4.5C80.9698 5.25556 80.7925 5.86667 80.5488 6.33333H80.0169C80.3272 5.6 80.4823 4.57778 80.4823 3.26667C80.4823 2.6 80.449 2.05556 80.3826 1.63333L80.2828 0.666668H98.1673L98.0675 1.63333Z" fill="#CEA687"/>
<path d="M117.054 17.8C116.743 18.0889 116.533 18.5444 116.422 19.1667C116.333 19.7889 116.289 20.7111 116.289 21.9333V25.3333H99.4352V24.5C99.8562 24.6333 100.244 24.7 100.599 24.7C101.02 24.7 101.341 24.5889 101.563 24.3667C101.806 24.1222 101.928 23.7778 101.928 23.3333V2.66667C101.928 2.22222 101.806 1.88889 101.563 1.66667C101.341 1.42222 101.02 1.3 100.599 1.3C100.266 1.3 99.8784 1.36667 99.4352 1.5V0.666668H114.893L114.793 1.63333C114.727 2.05556 114.693 2.6 114.693 3.26667C114.693 4.57778 114.849 5.6 115.159 6.33333H114.627C114.383 5.86667 114.206 5.25556 114.095 4.5C113.94 3.7 113.729 3.07778 113.463 2.63333C113.198 2.16667 112.655 1.77778 111.835 1.46667C111.015 1.15556 109.785 1 108.145 1C106.97 1 106.117 1.2 105.585 1.6C105.053 2 104.732 2.43333 104.621 2.9C104.532 3.34444 104.466 3.98889 104.422 4.83333V11.1667H109.009C109.652 11.1667 110.095 11.1556 110.339 11.1333C110.605 11.0889 110.804 10.9889 110.937 10.8333C111.07 10.6778 111.136 10.4111 111.136 10.0333C111.136 9.36667 111.092 8.86667 111.004 8.53333C110.937 8.2 110.715 8.03333 110.339 8.03333V7.6H111.635V15.3333H110.339V14.8667C110.715 14.8667 110.937 14.6889 111.004 14.3333C111.092 13.9556 111.136 13.4222 111.136 12.7333C111.136 12.3778 110.981 12.1444 110.671 12.0333C110.383 11.9 109.829 11.8222 109.009 11.8H104.422V21.1667C104.466 21.9222 104.554 22.5556 104.687 23.0667C104.82 23.5556 105.164 24 105.718 24.4C106.294 24.8 107.17 25 108.344 25C110.25 25 111.702 24.8 112.699 24.4C113.696 23.9778 114.372 23.4667 114.727 22.8667C115.081 22.2444 115.392 21.4111 115.657 20.3667C115.923 19.2333 116.234 18.3778 116.588 17.8H117.054Z" fill="#CEA687"/>
<path d="M139.718 0.633333V1.46667C139.297 1.33333 138.876 1.26667 138.455 1.26667C137.901 1.26667 137.447 1.38889 137.092 1.63333C136.76 1.87778 136.594 2.21111 136.594 2.63333V26H135.829L121.136 3.1L121.169 23.3333C121.169 23.7556 121.369 24.0889 121.768 24.3333C122.189 24.5778 122.698 24.7 123.297 24.7C123.762 24.7 124.205 24.6333 124.626 24.5V25.3333H117.38V24.5C117.823 24.6333 118.244 24.7 118.643 24.7C119.175 24.7 119.596 24.5778 119.906 24.3333C120.238 24.0889 120.405 23.7556 120.405 23.3333V2.66667C120.405 2.24444 120.238 1.91111 119.906 1.66667C119.574 1.42222 119.141 1.3 118.61 1.3C118.211 1.3 117.801 1.36667 117.38 1.5V0.666668H122.599L135.829 20.7667V2.63333C135.829 2.21111 135.641 1.87778 135.264 1.63333C134.887 1.38889 134.411 1.26667 133.835 1.26667C133.414 1.26667 132.981 1.33333 132.538 1.46667V0.633333H139.718Z" fill="#CEA687"/>
<path d="M149.263 0C151.767 0 153.817 0.655556 155.413 1.96667C157.03 3.25556 158.194 4.87778 158.903 6.83333C159.634 8.78889 160 10.7889 160 12.8333C160 15.2556 159.612 17.4667 158.837 19.4667C158.061 21.4444 156.886 23.0333 155.313 24.2333C153.761 25.4111 151.856 26 149.595 26C147.357 26 145.418 25.4111 143.778 24.2333C142.138 23.0333 140.886 21.4333 140.021 19.4333C139.179 17.4333 138.747 15.2333 138.725 12.8333C138.703 10.9444 139.046 9.02222 139.755 7.06667C140.465 5.08889 141.606 3.42222 143.179 2.06667C144.753 0.688889 146.781 0 149.263 0ZM149.595 25.3333C152.277 25.3333 154.216 24.1778 155.413 21.8667C156.631 19.5333 157.23 16.5222 157.208 12.8333C157.185 10.9222 156.886 9.03333 156.31 7.16667C155.756 5.3 154.881 3.75556 153.684 2.53333C152.509 1.28889 151.036 0.666668 149.263 0.666668C147.468 0.666668 145.994 1.34445 144.841 2.7C143.689 4.03333 142.847 5.66667 142.315 7.6C141.805 9.53333 141.55 11.4 141.55 13.2C141.55 15.4667 141.839 17.5111 142.415 19.3333C143.013 21.1556 143.911 22.6111 145.107 23.7C146.326 24.7889 147.822 25.3333 149.595 25.3333ZM151.423 11.1667C151.889 11.1667 152.21 11.1111 152.387 11C152.587 10.8667 152.687 10.6556 152.687 10.3667H153.152V12.5H152.687C152.687 12.2111 152.587 12.0111 152.387 11.9C152.21 11.7667 151.889 11.7 151.423 11.7H149.562V13.6C149.562 14.0444 149.628 14.3667 149.761 14.5667C149.894 14.7667 150.105 14.8667 150.393 14.8667V15.3333H148.232V14.8667C148.52 14.8667 148.72 14.7667 148.831 14.5667C148.964 14.3667 149.03 14.0444 149.03 13.6V11.7H147.168C146.725 11.7 146.404 11.7667 146.204 11.9C146.005 12.0333 145.905 12.2444 145.905 12.5333H145.44V10.3667H145.905C145.905 10.6556 146.005 10.8667 146.204 11C146.404 11.1111 146.725 11.1667 147.168 11.1667H149.03V9.33333C149.03 8.86667 148.964 8.54445 148.831 8.36667C148.72 8.16667 148.52 8.06667 148.232 8.06667V7.6H150.36V8.06667C150.072 8.06667 149.861 8.16667 149.728 8.36667C149.617 8.54445 149.562 8.86667 149.562 9.33333V11.1667H151.423Z" fill="#CEA687"/>
</g>
</svg>
